HIERARCHY
ROOT mixamorig:Hips
{
	OFFSET -0.000008 104.274872 1.554316
	CHANNELS 6 Xposition Yposition Zposition Xrotation Yrotation Zrotation
	JOINT mixamorig:Spine
	{
		OFFSET -0.000005 10.181595 0.131519
		CHANNELS 6 Xposition Yposition Zposition Xrotation Yrotation Zrotation
		JOINT mixamorig:Spine1
		{
			OFFSET -0.000000 9.893959 -1.470707
			CHANNELS 6 Xposition Yposition Zposition Xrotation Yrotation Zrotation
			JOINT mixamorig:Spine2
			{
				OFFSET -0.000000 9.220757 -1.370641
				CHANNELS 6 Xposition Yposition Zposition Xrotation Yrotation Zrotation
				JOINT mixamorig:Neck
				{
					OFFSET 0.000001 16.740417 -2.049036
					CHANNELS 6 Xposition Yposition Zposition Xrotation Yrotation Zrotation
					JOINT mixamorig:Head
					{
						OFFSET 0.000000 9.617874 1.685006
						CHANNELS 6 Xposition Yposition Zposition Xrotation Yrotation Zrotation
						JOINT mixamorig:HeadTop_End
						{
							OFFSET 0.000002 22.037354 7.501101
							CHANNELS 6 Xposition Yposition Zposition Xrotation Yrotation Zrotation
							End Site
							{
								OFFSET 0.000168 2310.654297 -282.823242
							}
						}
					}
				}
				JOINT mixamorig:RightShoulder
				{
					OFFSET -4.569970 11.014908 -2.160885
					CHANNELS 6 Xposition Yposition Zposition Xrotation Yrotation Zrotation
					JOINT mixamorig:RightArm
					{
						OFFSET -10.592851 -0.524811 -2.232101
						CHANNELS 6 Xposition Yposition Zposition Xrotation Yrotation Zrotation
						JOINT mixamorig:RightForeArm
						{
							OFFSET -27.841511 0.000031 -0.000004
							CHANNELS 6 Xposition Yposition Zposition Xrotation Yrotation Zrotation
							JOINT mixamorig:RightHand
							{
								OFFSET -28.328831 -0.000015 0.000015
								CHANNELS 6 Xposition Yposition Zposition Xrotation Yrotation Zrotation
								JOINT mixamorig:RightHandThumb1
								{
									OFFSET -2.464806 -1.573990 2.681852
									CHANNELS 6 Xposition Yposition Zposition Xrotation Yrotation Zrotation
									JOINT mixamorig:RightHandThumb2
									{
										OFFSET -3.215179 -1.872803 1.924282
										CHANNELS 6 Xposition Yposition Zposition Xrotation Yrotation Zrotation
										JOINT mixamorig:RightHandThumb3
										{
											OFFSET -2.654831 -1.527969 1.512609
											CHANNELS 6 Xposition Yposition Zposition Xrotation Yrotation Zrotation
											JOINT mixamorig:RightHandThumb4
											{
												OFFSET -2.018814 -1.152008 1.108052
												CHANNELS 6 Xposition Yposition Zposition Xrotation Yrotation Zrotation
												End Site
												{
													OFFSET -188.809540 -114.533607 132.431396
												}
											}
										}
									}
								}
								JOINT mixamorig:RightHandIndex1
								{
									OFFSET -9.108284 -0.517868 2.259835
									CHANNELS 6 Xposition Yposition Zposition Xrotation Yrotation Zrotation
									JOINT mixamorig:RightHandIndex2
									{
										OFFSET -3.699989 0.000000 0.001215
										CHANNELS 6 Xposition Yposition Zposition Xrotation Yrotation Zrotation
										JOINT mixamorig:RightHandIndex3
										{
											OFFSET -2.850006 0.000031 -0.000522
											CHANNELS 6 Xposition Yposition Zposition Xrotation Yrotation Zrotation
											JOINT mixamorig:RightHandIndex4
											{
												OFFSET -2.772186 -0.000015 -0.000020
												CHANNELS 6 Xposition Yposition Zposition Xrotation Yrotation Zrotation
												End Site
												{
													OFFSET -277.218445 0.000000 -0.050231
												}
											}
										}
									}
								}
								JOINT mixamorig:RightHandMiddle1
								{
									OFFSET -9.532516 -0.000031 -0.000023
									CHANNELS 6 Xposition Yposition Zposition Xrotation Yrotation Zrotation
									JOINT mixamorig:RightHandMiddle2
									{
										OFFSET -3.700005 -0.000015 0.003713
										CHANNELS 6 Xposition Yposition Zposition Xrotation Yrotation Zrotation
										JOINT mixamorig:RightHandMiddle3
										{
											OFFSET -2.949974 0.000015 -0.002054
											CHANNELS 6 Xposition Yposition Zposition Xrotation Yrotation Zrotation
											JOINT mixamorig:RightHandMiddle4
											{
												OFFSET -2.946640 0.000000 -0.000156
												CHANNELS 6 Xposition Yposition Zposition Xrotation Yrotation Zrotation
												End Site
												{
													OFFSET -294.664337 0.000000 -0.113670
												}
											}
										}
									}
								}
								JOINT mixamorig:RightHandRing1
								{
									OFFSET -9.103600 -0.043076 -1.865134
									CHANNELS 6 Xposition Yposition Zposition Xrotation Yrotation Zrotation
									JOINT mixamorig:RightHandRing2
									{
										OFFSET -3.379288 0.000000 -0.001055
										CHANNELS 6 Xposition Yposition Zposition Xrotation Yrotation Zrotation
										JOINT mixamorig:RightHandRing3
										{
											OFFSET -2.889687 -0.000015 0.000379
											CHANNELS 6 Xposition Yposition Zposition Xrotation Yrotation Zrotation
											JOINT mixamorig:RightHandRing4
											{
												OFFSET -2.638809 -0.000015 0.000941
												CHANNELS 6 Xposition Yposition Zposition Xrotation Yrotation Zrotation
												End Site
												{
													OFFSET -263.880371 0.000000 0.516020
												}
											}
										}
									}
								}
								JOINT mixamorig:RightHandPinky1
								{
									OFFSET -8.076683 -0.486710 -3.806280
									CHANNELS 6 Xposition Yposition Zposition Xrotation Yrotation Zrotation
									JOINT mixamorig:RightHandPinky2
									{
										OFFSET -3.600014 -0.000015 -0.003747
										CHANNELS 6 Xposition Yposition Zposition Xrotation Yrotation Zrotation
										JOINT mixamorig:RightHandPinky3
										{
											OFFSET -2.099983 0.000000 -0.005739
											CHANNELS 6 Xposition Yposition Zposition Xrotation Yrotation Zrotation
											JOINT mixamorig:RightHandPinky4
											{
												OFFSET -2.115768 -0.000031 -0.003680
												CHANNELS 6 Xposition Yposition Zposition Xrotation Yrotation Zrotation
												End Site
												{
													OFFSET -211.577087 0.000000 -0.350686
												}
											}
										}
									}
								}
							}
						}
					}
				}
				JOINT mixamorig:LeftShoulder
				{
					OFFSET 4.570447 11.014725 -2.160855
					CHANNELS 6 Xposition Yposition Zposition Xrotation Yrotation Zrotation
					JOINT mixamorig:LeftArm
					{
						OFFSET 10.592371 -0.524597 -2.232119
						CHANNELS 6 Xposition Yposition Zposition Xrotation Yrotation Zrotation
						JOINT mixamorig:LeftForeArm
						{
							OFFSET 27.841532 -0.000031 0.000026
							CHANNELS 6 Xposition Yposition Zposition Xrotation Yrotation Zrotation
							JOINT mixamorig:LeftHand
							{
								OFFSET 28.328846 -0.000061 0.000022
								CHANNELS 6 Xposition Yposition Zposition Xrotation Yrotation Zrotation
								JOINT mixamorig:LeftHandThumb1
								{
									OFFSET 2.466141 -1.576172 2.681732
									CHANNELS 6 Xposition Yposition Zposition Xrotation Yrotation Zrotation
									JOINT mixamorig:LeftHandThumb2
									{
										OFFSET 3.217812 -1.872070 1.916482
										CHANNELS 6 Xposition Yposition Zposition Xrotation Yrotation Zrotation
										JOINT mixamorig:LeftHandThumb3
										{
											OFFSET 2.656029 -1.528778 1.514513
											CHANNELS 6 Xposition Yposition Zposition Xrotation Yrotation Zrotation
											JOINT mixamorig:LeftHandThumb4
											{
												OFFSET 2.020889 -1.154053 1.115139
												CHANNELS 6 Xposition Yposition Zposition Xrotation Yrotation Zrotation
												End Site
												{
													OFFSET 190.885437 -115.081749 130.048782
												}
											}
										}
									}
								}
								JOINT mixamorig:LeftHandIndex1
								{
									OFFSET 9.109314 -0.518021 2.259871
									CHANNELS 6 Xposition Yposition Zposition Xrotation Yrotation Zrotation
									JOINT mixamorig:LeftHandIndex2
									{
										OFFSET 3.699989 0.000000 -0.000322
										CHANNELS 6 Xposition Yposition Zposition Xrotation Yrotation Zrotation
										JOINT mixamorig:LeftHandIndex3
										{
											OFFSET 2.850006 0.000000 0.000352
											CHANNELS 6 Xposition Yposition Zposition Xrotation Yrotation Zrotation
											JOINT mixamorig:LeftHandIndex4
											{
												OFFSET 2.774864 -0.000031 -0.000027
												CHANNELS 6 Xposition Yposition Zposition Xrotation Yrotation Zrotation
												End Site
												{
													OFFSET 277.486267 0.000000 -0.009857
												}
											}
										}
									}
								}
								JOINT mixamorig:LeftHandMiddle1
								{
									OFFSET 9.533394 0.000061 0.000044
									CHANNELS 6 Xposition Yposition Zposition Xrotation Yrotation Zrotation
									JOINT mixamorig:LeftHandMiddle2
									{
										OFFSET 3.699989 -0.000015 -0.000231
										CHANNELS 6 Xposition Yposition Zposition Xrotation Yrotation Zrotation
										JOINT mixamorig:LeftHandMiddle3
										{
											OFFSET 2.949997 -0.000015 -0.000059
											CHANNELS 6 Xposition Yposition Zposition Xrotation Yrotation Zrotation
											JOINT mixamorig:LeftHandMiddle4
											{
												OFFSET 2.952896 0.000031 0.000063
												CHANNELS 6 Xposition Yposition Zposition Xrotation Yrotation Zrotation
												End Site
												{
													OFFSET 295.289337 0.000000 0.022810
												}
											}
										}
									}
								}
								JOINT mixamorig:LeftHandRing1
								{
									OFFSET 9.104523 -0.042999 -1.865074
									CHANNELS 6 Xposition Yposition Zposition Xrotation Yrotation Zrotation
									JOINT mixamorig:LeftHandRing2
									{
										OFFSET 3.150009 -0.000031 0.000043
										CHANNELS 6 Xposition Yposition Zposition Xrotation Yrotation Zrotation
										JOINT mixamorig:LeftHandRing3
										{
											OFFSET 2.949982 -0.000015 0.000040
											CHANNELS 6 Xposition Yposition Zposition Xrotation Yrotation Zrotation
											JOINT mixamorig:LeftHandRing4
											{
												OFFSET 2.644348 0.000000 0.000057
												CHANNELS 6 Xposition Yposition Zposition Xrotation Yrotation Zrotation
												End Site
												{
													OFFSET 264.434631 0.000000 0.012105
												}
											}
										}
									}
								}
								JOINT mixamorig:LeftHandPinky1
								{
									OFFSET 8.077789 -0.486847 -3.806259
									CHANNELS 6 Xposition Yposition Zposition Xrotation Yrotation Zrotation
									JOINT mixamorig:LeftHandPinky2
									{
										OFFSET 3.599953 0.000031 0.014727
										CHANNELS 6 Xposition Yposition Zposition Xrotation Yrotation Zrotation
										JOINT mixamorig:LeftHandPinky3
										{
											OFFSET 2.100021 0.000015 0.007705
											CHANNELS 6 Xposition Yposition Zposition Xrotation Yrotation Zrotation
											JOINT mixamorig:LeftHandPinky4
											{
												OFFSET 2.125504 0.000031 0.007517
												CHANNELS 6 Xposition Yposition Zposition Xrotation Yrotation Zrotation
												End Site
												{
													OFFSET 212.550781 0.000000 0.625752
												}
											}
										}
									}
								}
							}
						}
					}
				}
			}
		}
	}
	JOINT mixamorig:RightUpLeg
	{
		OFFSET -8.207787 -6.751648 -1.599560
		CHANNELS 6 Xposition Yposition Zposition Xrotation Yrotation Zrotation
		JOINT mixamorig:RightLeg
		{
			OFFSET -0.000002 -44.370117 0.345942
			CHANNELS 6 Xposition Yposition Zposition Xrotation Yrotation Zrotation
			JOINT mixamorig:RightFoot
			{
				OFFSET 0.000003 -44.423679 -3.043532
				CHANNELS 6 Xposition Yposition Zposition Xrotation Yrotation Zrotation
				JOINT mixamorig:RightToeBase
				{
					OFFSET -0.000002 -8.728671 10.710558
					CHANNELS 6 Xposition Yposition Zposition Xrotation Yrotation Zrotation
					JOINT mixamorig:RightToe_End
					{
						OFFSET -0.000001 -0.000679 9.278119
						CHANNELS 6 Xposition Yposition Zposition Xrotation Yrotation Zrotation
						End Site
						{
							OFFSET 0.000000 -0.067690 927.812134
						}
					}
				}
			}
		}
	}
	JOINT mixamorig:LeftUpLeg
	{
		OFFSET 8.207793 -6.751686 -1.599556
		CHANNELS 6 Xposition Yposition Zposition Xrotation Yrotation Zrotation
		JOINT mixamorig:LeftLeg
		{
			OFFSET -0.000004 -44.370014 0.346954
			CHANNELS 6 Xposition Yposition Zposition Xrotation Yrotation Zrotation
			JOINT mixamorig:LeftFoot
			{
				OFFSET -0.000001 -44.423672 -3.044401
				CHANNELS 6 Xposition Yposition Zposition Xrotation Yrotation Zrotation
				JOINT mixamorig:LeftToeBase
				{
					OFFSET -0.000002 -8.728669 10.710558
					CHANNELS 6 Xposition Yposition Zposition Xrotation Yrotation Zrotation
					JOINT mixamorig:LeftToe_End
					{
						OFFSET -0.000003 -0.000679 9.278133
						CHANNELS 6 Xposition Yposition Zposition Xrotation Yrotation Zrotation
						End Site
						{
							OFFSET 0.000000 -0.068021 927.813477
						}
					}
				}
			}
		}
	}
}
MOTION
Frames: 3
Frame Time: 0.033333
0.000006 104.270477 1.554256 0.000010 0.000003 -0.000113 -0.000005 10.181587 0.131522 0.000001 -0.000003 0.000084 -0.000000 9.893967 -1.470711 0.000001 0.000000 -0.000000 -0.000000 9.220802 -1.370642 0.000000 -0.000000 -0.000000 0.000001 16.740433 -2.049030 0.000000 -0.000000 -0.000000 0.000000 9.617859 1.685014 0.000000 0.000000 0.000000 0.000002 22.037384 7.501101 0.000000 -0.000000 0.000000 -4.569968 11.014880 -2.160881 0.000008 0.000001 -0.000038 -10.592882 -0.524754 -2.231921 75.012587 26.503448 -20.490863 -27.841516 0.000014 0.000529 -54.355506 107.832889 70.331325 -28.328808 0.000020 0.000027 -0.000316 -0.000045 0.000008 -2.464454 -1.573728 2.682330 -51.055500 -173.795120 -19.448144 -3.215273 -1.872610 1.924672 155.838252 29.310719 -10.427908 -2.654944 -1.527876 1.513078 143.760961 27.220327 -42.101129 -2.018831 -1.151996 1.108061 -0.000004 -0.000003 0.000004 -9.108391 -0.517564 2.260105 92.121411 17.718064 -18.424336 -3.700046 0.000321 0.001466 86.780811 13.633316 -12.872144 -2.850062 0.000355 -0.000323 85.111568 10.329699 -9.487139 -2.772161 -0.000015 -0.000020 -0.000001 -0.000000 0.000002 -9.532590 0.000263 0.000219 87.672206 16.518172 -16.006453 -3.700067 0.000335 0.003929 87.728473 10.890717 -10.379897 -2.950049 0.000337 -0.001849 87.632413 10.534693 -10.103646 -2.946625 -0.000000 -0.000157 0.000003 0.000000 0.000000 -9.103707 -0.042762 -1.864896 83.687829 18.171302 -16.258434 -3.379315 0.000312 -0.000826 88.929582 10.081318 -9.912772 -2.889743 0.000343 0.000604 92.323688 7.068162 -7.407494 -2.638813 -0.000014 0.000943 -0.000002 0.000003 -0.000002 -8.076746 -0.486400 -3.806095 72.369440 17.056529 -12.406893 -3.600021 0.000259 -0.003573 77.311697 9.565691 -7.367956 -2.100020 0.000301 -0.005541 79.433638 6.293713 -5.045461 -2.115777 -0.000027 -0.003681 0.000000 -0.000001 -0.000005 4.570446 11.014691 -2.160851 -0.000018 0.000010 -0.000021 10.592398 -0.524477 -2.232369 74.412336 -12.166008 9.251377 27.841833 0.000089 -0.000224 104.734626 -69.938104 84.423891 28.328838 -0.000029 0.000022 0.000020 -0.000089 0.000000 2.465911 -1.576097 2.681908 -49.765650 175.854476 16.160482 3.217843 -1.871798 1.916380 157.222144 -26.943780 23.185555 2.656100 -1.528660 1.514452 139.676617 -27.848787 47.381678 2.020890 -1.154070 1.115148 0.000003 0.000001 0.000006 9.109366 -0.517901 2.259732 71.009939 -17.701528 12.668935 3.700037 0.000105 -0.000445 67.293373 -18.264781 12.226359 2.850071 0.000133 0.000212 63.515527 -14.630376 9.085882 2.774891 -0.000013 -0.000030 -0.000001 -0.000002 -0.000002 9.533450 0.000155 -0.000079 68.183026 -15.403946 10.453919 3.700053 0.000121 -0.000376 71.280599 -16.220514 11.665782 2.950060 0.000093 -0.000199 70.254704 -18.623863 13.163034 2.952869 -0.000027 0.000060 -0.000000 -0.000001 -0.000001 9.104579 -0.042896 -1.865237 68.784991 -13.855785 9.510529 3.150053 0.000164 -0.000097 72.868706 -13.533821 10.013069 2.950011 0.000113 -0.000077 71.910868 -15.290256 11.123451 2.644314 0.000046 0.000053 0.000000 -0.000001 0.000002 8.077825 -0.486765 -3.806397 61.003486 -15.613877 9.591964 3.599975 0.000110 0.014573 60.848912 -12.548585 7.695063 2.100039 0.000110 0.007562 63.406518 -11.658967 7.521088 2.125498 -0.000042 0.007511 -0.000000 0.000000 -0.000001 -8.207786 -6.751667 -1.599560 -0.077001 -0.000003 0.000080 -0.000002 -44.370110 0.345938 0.153719 -0.000000 -0.000000 0.000000 -44.423679 -3.043532 -0.076700 0.000000 -0.000002 -0.000006 -8.728667 10.710559 -0.000009 -0.000000 -0.000000 -0.000001 -0.000679 9.278123 0.000000 -0.000000 -0.000000 8.207792 -6.751710 -1.599556 -0.074518 -0.000003 0.000081 -0.000002 -44.370014 0.346960 0.148822 0.000002 0.000000 -0.000001 -44.423664 -3.044403 -0.074314 0.000000 -0.000002 -0.000004 -8.728671 10.710558 0.000007 -0.000000 -0.000000 0.000000 -0.000680 9.278137 -0.000000 0.000000 -0.000001 
0.000006 104.270477 1.554256 0.000010 0.000003 -0.000113 -0.000005 10.181587 0.131522 0.000001 -0.000003 0.000084 -0.000000 9.893967 -1.470711 0.000001 0.000000 -0.000000 -0.000000 9.220802 -1.370642 0.000000 -0.000000 -0.000000 0.000001 16.740433 -2.049030 0.000000 -0.000000 -0.000000 0.000000 9.617859 1.685014 0.000000 0.000000 0.000000 0.000002 22.037384 7.501101 0.000000 -0.000000 0.000000 -4.569968 11.014880 -2.160881 0.000008 0.000001 -0.000038 -10.592877 -0.524759 -2.231918 75.471241 27.246753 -21.245512 -27.841511 0.000028 0.000547 -52.221079 108.168333 68.171169 -28.328823 0.000020 0.000026 -0.000324 -0.000044 0.000008 -2.464482 -1.573668 2.682252 -55.538249 -179.556330 -37.562817 -3.215299 -1.872604 1.924644 151.241330 30.501750 -1.120389 -2.654966 -1.527872 1.513073 141.270401 28.117191 -35.800105 -2.018830 -1.152019 1.108056 -0.000005 0.000004 0.000003 -9.108371 -0.517556 2.260077 89.267642 14.221057 -14.087419 -3.700053 0.000331 0.001467 88.064552 11.397632 -10.999124 -2.850059 0.000376 -0.000300 87.812976 9.526739 -9.170542 -2.772166 -0.000012 -0.000019 -0.000006 0.000001 0.000001 -9.532574 0.000273 0.000197 87.110430 13.364390 -12.844272 -3.700065 0.000331 0.003945 88.947054 10.837721 -10.549872 -2.950068 0.000342 -0.001814 91.491545 11.216492 -11.503147 -2.946639 0.000001 -0.000157 -0.000003 0.000001 -0.000000 -9.103681 -0.042764 -1.864903 84.655782 15.843015 -14.405427 -3.379313 0.000314 -0.000834 87.463701 9.850998 -9.442907 -2.889760 0.000343 0.000636 94.031809 7.535847 -8.133182 -2.638807 -0.000000 0.000940 -0.000000 -0.000001 -0.000001 -8.076738 -0.486408 -3.806068 73.104785 17.280063 -12.740668 -3.600040 0.000254 -0.003587 75.074680 9.395641 -6.947517 -2.100014 0.000309 -0.005557 79.743094 5.826557 -4.683949 -2.115766 -0.000056 -0.003674 -0.000002 0.000001 -0.000004 4.570446 11.014691 -2.160851 -0.000018 0.000010 -0.000021 10.592388 -0.524483 -2.232347 73.097429 -8.331517 6.180972 27.841837 0.000074 -0.000193 108.224791 -71.288344 89.486857 28.328833 -0.000028 0.000018 0.000021 -0.000089 -0.000000 2.466162 -1.576138 2.681876 -14.074406 163.571611 -65.098335 3.217869 -1.871814 1.916410 162.565865 -23.169185 36.832352 2.656095 -1.528687 1.514483 137.680740 -28.088707 61.019278 2.020891 -1.154056 1.115140 -0.000002 0.000001 0.000002 9.109360 -0.517915 2.259742 69.337622 -20.461946 14.221585 3.700032 0.000114 -0.000444 69.087104 -14.770887 10.210106 2.850046 0.000145 0.000182 68.376218 -12.477271 8.492924 2.774894 -0.000044 -0.000025 0.000001 0.000001 0.000000 9.533452 0.000149 -0.000077 68.680223 -18.951999 13.004366 3.700025 0.000129 -0.000373 71.529791 -13.385681 9.660741 2.950034 0.000126 -0.000209 70.777986 -13.709759 9.764261 2.952878 -0.000014 0.000067 -0.000002 -0.000002 0.000001 9.104570 -0.042905 -1.865211 69.543620 -18.937516 13.211720 3.150040 0.000151 -0.000096 72.747293 -13.254311 9.783833 2.950002 0.000125 -0.000079 73.033341 -11.445652 8.488547 2.644331 0.000032 0.000060 -0.000002 -0.000001 -0.000002 8.077825 -0.486777 -3.806381 61.627888 -19.949004 12.356491 3.600002 0.000127 0.014585 60.961098 -16.009716 9.784774 2.100037 0.000112 0.007552 63.661004 -12.526608 8.104237 2.125505 -0.000006 0.007512 0.000002 -0.000002 -0.000000 -8.207786 -6.751667 -1.599560 -0.077001 -0.000003 0.000080 -0.000002 -44.370110 0.345938 0.153719 -0.000000 -0.000000 0.000000 -44.423679 -3.043532 -0.076700 0.000000 -0.000002 -0.000006 -8.728667 10.710559 -0.000009 -0.000000 -0.000000 -0.000001 -0.000679 9.278123 0.000000 -0.000000 -0.000000 8.207792 -6.751710 -1.599556 -0.074518 -0.000003 0.000081 -0.000002 -44.370014 0.346960 0.148822 0.000002 0.000000 -0.000001 -44.423664 -3.044403 -0.074314 0.000000 -0.000002 -0.000004 -8.728671 10.710558 0.000007 -0.000000 -0.000000 0.000000 -0.000680 9.278137 -0.000000 0.000000 -0.000001 
0.000006 104.270477 1.554256 0.000010 0.000003 -0.000113 -0.000005 10.181587 0.131522 0.000001 -0.000003 0.000084 -0.000000 9.893967 -1.470711 0.000001 0.000000 -0.000000 -0.000000 9.220802 -1.370642 0.000000 -0.000000 -0.000000 0.000001 16.740433 -2.049030 0.000000 -0.000000 -0.000000 0.000000 9.617859 1.685014 0.000000 0.000000 0.000000 0.000002 22.037384 7.501101 0.000000 -0.000000 0.000000 -4.569968 11.014880 -2.160881 0.000008 0.000001 -0.000038 -10.592867 -0.524792 -2.231883 75.368166 35.418048 -27.711189 -27.841526 -0.000004 0.000558 -49.386878 104.859858 61.735218 -28.328810 0.000018 0.000029 -0.000319 -0.000044 0.000008 -2.464449 -1.573718 2.682308 -52.968954 -172.699912 -25.346590 -3.215278 -1.872642 1.924691 151.361718 28.691531 -14.334641 -2.654964 -1.527871 1.513065 137.866836 28.687805 -38.513227 -2.018842 -1.151984 1.108066 -0.000001 0.000001 0.000002 -9.108376 -0.517549 2.260082 90.137105 14.609057 -14.689690 -3.700052 0.000317 0.001456 87.602586 11.899410 -11.392726 -2.850086 0.000372 -0.000325 86.419494 9.452911 -8.881415 -2.772169 -0.000015 -0.000018 -0.000002 0.000001 -0.000001 -9.532592 0.000282 0.000222 88.894960 14.353639 -14.219622 -3.700057 0.000332 0.003950 90.028232 11.770157 -11.681558 -2.950063 0.000334 -0.001825 90.765202 11.324635 -11.468714 -2.946635 0.000002 -0.000152 -0.000002 0.000000 0.000001 -9.103694 -0.042758 -1.864881 86.913092 16.698050 -15.790969 -3.379359 0.000302 -0.000823 88.973138 12.468468 -12.266299 -2.889760 0.000339 0.000630 94.190426 9.124273 -9.864363 -2.638806 -0.000016 0.000941 -0.000005 0.000001 0.000002 -8.076753 -0.486403 -3.806053 75.778975 18.173006 -14.068337 -3.600058 0.000254 -0.003569 76.538895 12.031821 -9.209575 -2.100026 0.000299 -0.005525 80.902880 7.428614 -6.143952 -2.115770 -0.000040 -0.003677 0.000001 -0.000001 -0.000002 4.570446 11.014691 -2.160851 -0.000018 0.000010 -0.000021 10.592415 -0.524474 -2.232371 72.048332 -18.443606 13.466746 27.841829 0.000053 -0.000200 110.097943 -73.791827 94.091136 28.328846 -0.000044 0.000016 0.000024 -0.000088 0.000000 2.466222 -1.576137 2.681858 -9.697655 164.231680 -73.060211 3.217864 -1.871862 1.916415 161.757458 -22.254498 41.224276 2.656086 -1.528700 1.514504 135.647571 -28.894487 61.729925 2.020887 -1.154083 1.115137 -0.000005 0.000001 0.000004 9.109387 -0.517913 2.259750 71.675322 -21.058385 15.281363 3.700037 0.000123 -0.000464 70.883772 -14.563727 10.405993 2.850060 0.000157 0.000210 70.111824 -11.506502 8.086557 2.774894 -0.000014 -0.000022 -0.000000 -0.000000 0.000000 9.533476 0.000158 -0.000086 70.811406 -18.512468 13.209061 3.700050 0.000130 -0.000383 73.178053 -11.856054 8.813662 2.950055 0.000134 -0.000208 72.341675 -12.261573 8.982640 2.952864 -0.000031 0.000063 -0.000000 0.000004 0.000000 9.104589 -0.042899 -1.865218 70.752673 -17.905911 12.766815 3.150042 0.000154 -0.000089 73.543741 -12.147233 9.094393 2.950025 0.000157 -0.000074 74.295943 -10.580755 8.027135 2.644326 0.000016 0.000054 0.000001 -0.000002 -0.000000 8.077850 -0.486764 -3.806385 62.953669 -18.697518 11.894278 3.599990 0.000131 0.014583 62.843157 -15.309338 9.716887 2.100040 0.000133 0.007565 66.066794 -12.087090 8.196830 2.125491 -0.000017 0.007509 0.000001 0.000001 0.000002 -8.207786 -6.751667 -1.599560 -0.077001 -0.000003 0.000080 -0.000002 -44.370110 0.345938 0.153719 -0.000000 -0.000000 0.000000 -44.423679 -3.043532 -0.076700 0.000000 -0.000002 -0.000006 -8.728667 10.710559 -0.000009 -0.000000 -0.000000 -0.000001 -0.000679 9.278123 0.000000 -0.000000 -0.000000 8.207792 -6.751710 -1.599556 -0.074518 -0.000003 0.000081 -0.000002 -44.370014 0.346960 0.148822 0.000002 0.000000 -0.000001 -44.423664 -3.044403 -0.074314 0.000000 -0.000002 -0.000004 -8.728671 10.710558 0.000007 -0.000000 -0.000000 0.000000 -0.000680 9.278137 -0.000000 0.000000 -0.000001 
